<svg width="64" height="64" viewBox="0 0 64 64" fill="none" xmlns="http://www.w3.org/2000/svg">
<rect width="64" height="64" fill="#D42C3D"/>
<path d="M45.1739 39.2908C45.1206 39.3041 45.0674 39.3307 45.0142 39.344H45.0009C44.2426 39.6899 43.5906 40.2487 43.125 41.0337C41.9276 43.0027 42.4731 45.4907 44.5086 46.7014C44.9211 46.9541 45.3601 47.1005 45.8125 47.1537C46.3713 47.1936 46.93 47.0606 47.4223 46.688C47.4356 46.688 47.4356 46.6747 47.4489 46.6747C47.4356 46.6747 47.4356 46.6747 47.4223 46.6747C46.4511 46.6481 45.4666 46.0494 45.4133 44.9984C45.0541 43.2422 46.8768 41.6989 48.5665 42.1246C48.6197 42.1379 48.6729 42.1513 48.7261 42.1779C51.3205 42.8032 51.8527 46.4087 50.3093 48.2979C49.7772 48.9897 49.0853 49.4687 48.3004 49.7614C48.3004 49.7614 48.2871 49.7614 48.2738 49.7614C46.3313 50.4798 43.9099 50.0008 42.4332 48.5241C40.0783 46.1426 39.1337 42.8431 37.7367 39.8895C37.444 39.5569 37.4839 38.7719 38.1092 39.1312C38.1225 39.1445 38.1358 39.1445 38.1491 39.1578C38.6281 39.3041 39.1204 39.3972 39.6126 39.4372C42.6061 39.6899 45.7726 38.1067 47.1296 35.3793C48.2472 33.0777 47.6219 30.0443 45.6129 28.4344C43.8833 26.9976 41.6482 26.5053 39.4397 26.3456C38.841 26.3057 38.2423 26.2924 37.6569 26.2791C36.1801 26.2791 34.7033 26.2791 33.2265 26.2791C32.854 26.2126 32.1888 25.5474 32.1356 25.4942C30.7918 24.1504 29.315 22.9796 27.7318 21.9286C26.8936 21.3698 26.9069 21.3698 26.0289 21.8355C25.1641 22.2878 24.3525 22.82 23.5675 23.4054C22.3968 24.2835 21.3324 25.2946 20.3745 26.4122C20.3213 26.4787 20.2814 26.5452 20.2148 26.6516C20.3878 26.3989 21.0131 26.798 21.0131 26.798C21.0131 26.798 21.2526 26.9577 21.359 27.0508C21.5586 27.2237 21.7315 27.4366 21.8646 27.6761C22.0775 28.0619 22.1706 28.5143 22.277 28.94C22.4766 29.7782 22.5431 30.643 22.6229 31.5077C22.7427 32.918 22.8757 34.3283 22.9023 35.7518C22.9555 38.4659 22.9289 41.1933 22.9289 43.9074C22.9289 46.4087 22.8225 48.8833 22.3702 51.3446C22.2105 52.2493 22.0109 53.154 21.5187 53.9522C21.3856 54.1784 21.3856 54.378 21.4388 54.6175H32.2154C30.273 50.706 30.4725 46.1958 30.3927 41.9517V27.1838C32.7077 27.2903 35.1291 26.9044 37.3642 27.583C37.3775 27.583 37.3775 27.583 37.3908 27.5963C39.1869 28.0885 40.4508 29.2061 41.0761 31.0421C41.4752 32.2129 41.6083 33.4369 41.2624 34.6343C40.7701 36.3372 39.28 37.5346 37.4972 37.7342H37.4839C37.2844 37.7608 37.0848 37.7874 36.8852 37.7874C36.5925 36.8029 35.6612 36.0845 34.6767 36.0712C34.6368 36.0712 34.5969 36.0712 34.557 36.0845C33.7587 36.151 33.1733 36.6698 33.0536 37.4149C32.9338 38.12 33.3596 38.8917 34.0381 39.1977C34.1578 39.2509 34.2776 39.2908 34.4106 39.3307C34.9295 39.4638 35.4351 39.3972 35.914 39.0912C35.9938 39.038 36.0604 39.0114 36.1269 39.0247C36.1801 39.0247 36.2333 39.0513 36.2732 39.1046C36.3398 39.1844 36.3664 39.3174 36.3531 39.4239C36.2865 39.7698 36.1934 40.1157 36.1003 40.4616C35.6878 42.0049 35.2222 43.5482 35.0891 45.158C34.9561 46.8876 35.1291 48.5507 35.8076 50.1605C36.5127 51.8235 37.6303 53.1407 39.2135 54.0188C41.0628 55.0565 43.0718 55.3492 45.1606 55.123C45.2404 55.1097 45.3069 55.1097 45.3867 55.0964C46.4378 54.9102 47.4489 54.5509 48.3536 53.9922C52.3316 51.451 53.4625 45.6237 51.1076 41.6191C49.9235 39.6234 47.3824 38.4792 45.1739 39.2908Z" fill="white"/>
<path d="M21.5977 15.5291C21.5977 15.5557 21.611 15.5823 21.611 15.609C26.6799 17.7643 30.8974 20.9041 33.3853 26.0928C33.6381 25.6272 33.8643 25.2413 34.0506 24.8289C34.6493 23.4985 34.9553 22.1015 35.1149 20.6513C35.1947 19.9329 35.1681 19.2411 34.7956 18.5891C34.3166 17.7643 33.678 17.0724 32.9463 16.4737C31.2966 15.1433 29.3541 14.5446 27.252 14.385C25.6422 14.2652 24.0723 14.4914 22.5556 15.0901C22.2363 15.2231 21.9303 15.3828 21.5977 15.5291Z" fill="white"/>
<path d="M24.1934 19.9859C24.087 19.9193 24.0337 19.8794 23.9672 19.8528C23.0491 19.4802 22.1443 19.0944 21.2263 18.7617C20.4545 18.4823 19.6695 18.2827 18.8845 18.0565C18.7913 18.0299 18.6184 18.0299 18.5784 18.0832C18.1127 18.6553 17.7136 19.294 17.7269 20.0657C17.7402 20.5979 17.7934 21.1434 17.8866 21.6624C18.1261 22.9663 18.4986 24.217 19.124 25.3879C19.2969 25.7073 19.5098 26.0133 19.7493 26.3858C20.7473 23.8711 22.2907 21.822 24.1934 19.9859Z" fill="white"/>
<path d="M32.2818 24.8287C31.111 22.8198 29.5943 21.1301 27.7849 19.6666C25.8159 18.0701 23.6339 16.8594 21.2924 15.9148C21.1194 15.8483 20.9731 15.8483 20.8267 15.968C20.5207 16.1942 20.1881 16.4071 19.8954 16.6598C19.5628 16.9525 19.2568 17.2718 18.9375 17.5779C18.9508 17.6045 18.9641 17.6311 18.9774 17.6577C24.0996 19.0014 28.5965 21.476 32.4148 25.1613C32.3882 25.0283 32.335 24.9352 32.2818 24.8287Z" fill="white"/>
<path d="M21.9181 12.2826C21.4524 13.1475 20.9468 13.999 20.4678 14.8506C20.2948 15.1699 20.1218 15.4893 19.9355 15.8086C19.9489 15.8219 19.9755 15.8485 19.9888 15.8618C20.2549 15.7288 20.521 15.5824 20.7871 15.4493C22.4104 14.5845 24.047 13.7329 25.6703 12.8814C26.0561 12.6818 26.1093 12.4423 25.7767 12.1629C25.4973 11.9234 25.2046 11.6706 24.8719 11.4843C23.6877 10.7924 22.5434 11.1117 21.9181 12.2826Z" fill="white"/>
<path d="M18.712 16.9927C18.6986 16.9794 18.6853 16.9528 18.672 16.9395C18.5922 16.9661 18.5257 16.9794 18.4458 17.006C16.5165 17.8043 14.5872 18.6027 12.6712 19.401C12.3652 19.534 12.2853 19.7869 12.5248 20.013C12.8841 20.3723 13.2567 20.7315 13.6824 20.9977C14.6271 21.5831 15.6916 21.3436 16.3303 20.4388C16.8758 19.6538 17.4213 18.8688 17.9668 18.0704C18.233 17.7112 18.4725 17.3519 18.712 16.9927Z" fill="white"/>
<path d="M14.653 14.9971C15.6776 15.2499 16.6888 15.5293 17.7133 15.7954C18.0061 15.8753 18.3121 15.9418 18.6048 16.0216C18.6181 15.995 18.6314 15.9817 18.6447 15.9551C18.5516 15.8486 18.4718 15.7422 18.3786 15.6358C17.5138 14.6911 16.6489 13.7464 15.784 12.815C15.2784 12.2694 14.7728 11.7239 14.2672 11.1784C14.0277 10.9256 13.7616 10.9522 13.6285 11.2582C13.4422 11.6973 13.2427 12.1497 13.1362 12.6154C12.8701 13.7597 13.5088 14.7177 14.653 14.9971Z" fill="white"/>
<path d="M17.4212 13.8531C17.9268 14.4518 18.4458 15.0506 19.0046 15.7026C19.0179 15.5695 19.0312 15.503 19.0312 15.4498C18.9248 14.6115 18.805 13.7866 18.6853 12.9483C18.5123 11.6976 18.3393 10.4469 18.1796 9.19613C18.1397 8.86349 17.9268 8.73043 17.6341 8.86349C17.1152 9.10299 16.6495 9.40902 16.2769 9.8481C15.5717 10.673 15.5717 11.671 16.2769 12.4959C16.6628 12.9616 17.0354 13.414 17.4212 13.8531Z" fill="white"/>
<path d="M19.4294 15.0504C19.4427 15.2233 19.456 15.3963 19.4693 15.5693C19.4959 15.5693 19.5226 15.5826 19.5359 15.5826C19.5891 15.4894 19.6556 15.3963 19.6955 15.2899C20.0415 14.6113 20.3874 13.9327 20.7334 13.2541C21.3321 12.0965 21.9176 10.9389 22.5163 9.78135C22.6627 9.50193 22.5562 9.27573 22.2369 9.23582C21.8244 9.1959 21.412 9.14268 21.0128 9.18259C19.7488 9.31565 18.9637 10.1539 19.0702 11.4445C19.1899 12.6554 19.3097 13.8529 19.4294 15.0504Z" fill="white"/>
<path d="M14.6402 17.9643C15.6381 17.605 16.6228 17.2325 17.6074 16.8599C17.9001 16.7535 18.2061 16.6337 18.4989 16.514C18.4989 16.4874 18.4855 16.4741 18.4855 16.4475C18.419 16.4209 18.3525 16.3942 18.286 16.3809C16.2502 15.9285 14.2144 15.4895 12.1654 15.0371C11.8461 14.9705 11.6332 15.1435 11.6997 15.4628C11.7795 15.9152 11.8594 16.3676 12.0323 16.7801C12.4847 17.9377 13.4959 18.3768 14.6402 17.9643Z" fill="white"/>
<path d="M24.3401 20.3852C22.9696 21.729 21.7854 23.2193 20.8673 24.9091C20.7609 25.0953 20.681 25.2816 20.5879 25.4812C20.6012 25.4945 20.6278 25.5078 20.6411 25.5344C22.3176 23.7648 24.2203 22.2746 26.4823 21.1968C26.3758 21.117 26.3093 21.0771 26.2428 21.0371C25.7904 20.7976 25.338 20.5714 24.8989 20.3053C24.6727 20.1723 24.5263 20.1989 24.3401 20.3852Z" fill="white"/>
</svg>
