<svg width="858" height="436" viewBox="0 0 858 436" fill="none" xmlns="http://www.w3.org/2000/svg">
<g clip-path="url(#clip0_1680_2625)">
<path d="M312.923 313.002C324.483 312.058 335.887 309.541 346.189 304.036C346.504 323.697 345.875 343.358 346.504 363.019C350.279 357.514 351.93 350.672 356.806 345.875C366.558 335.73 382.994 334.314 395.577 339.662C408.003 345.01 415.002 358.143 417.283 370.883C420.193 386.848 418.934 404.621 409.497 418.384C402.655 428.608 390.859 435.292 378.512 435.764C357.356 436.787 336.28 429.709 319.293 417.362C319.293 392.432 319.293 367.58 319.293 342.65C319.057 332.584 319.136 321.574 312.923 313.002ZM365.221 349.414C360.345 351.38 356.885 355.784 354.604 360.345C348.627 372.535 347.133 386.376 346.425 399.745C345.245 411.306 350.829 423.889 361.053 429.866C368.131 434.034 377.647 431.439 382.365 424.911C389.994 414.766 391.173 401.397 391.252 389.129C390.937 377.725 390.072 365.378 383.466 355.626C379.691 349.885 371.906 346.74 365.221 349.414Z" fill="#D42C3D"/>
<path d="M750.574 312.922C762.135 312.371 773.774 309.776 783.998 304.192C784.234 323.381 783.84 342.649 784.155 361.838C787.458 359.557 787.615 355.153 789.739 352.086C799.255 336.043 822.769 331.954 837.869 342.177C852.182 352.008 848.485 378.275 831.656 383.308C823.634 386.06 815.377 382.993 808.299 379.297C809.557 388.184 812.152 397.7 819.466 403.519C827.566 409.889 840.936 409.496 847.384 401.003C852.339 395.104 852.968 387.24 854.148 379.926C856.822 382.207 856.428 385.982 856.9 389.206C858.08 402.182 856.664 416.417 848.407 427.034C837.239 440.954 812.309 438.28 803.659 422.787C796.03 409.339 798.704 392.824 804.366 379.14C800.592 379.926 794.929 380.949 793.12 376.387C790.761 371.59 797.21 366.871 801.457 369.231C804.13 370.174 804.838 373.163 806.254 375.286C820.095 377.016 825.522 357.749 816.399 349.334C810.029 344.143 800.356 346.739 795.244 352.48C785.728 362.703 783.604 377.488 784.155 390.936C784.784 405.249 783.919 420.506 790.604 433.64C777.313 433.64 764.101 433.64 750.81 433.64C756.158 423.18 756.315 411.226 756.944 399.744C757.416 380.713 757.102 361.681 757.18 342.57C757.023 332.583 757.416 321.337 750.574 312.922Z" fill="#D42C3D"/>
<path d="M76.0484 313.082C88.8673 312.531 101.686 312.924 114.505 312.924C110.73 325.9 113.797 339.506 115.842 352.561C118.909 367.739 122.763 382.681 126.852 397.623C129.526 394.163 129.841 389.68 131.02 385.591C135.896 365.694 141.48 345.64 141.952 324.957C142.03 320.867 141.087 316.856 140.222 312.924C152.962 312.767 165.781 312.688 178.521 312.924C173.488 329.597 177.892 347.134 180.251 363.964C184.577 387.557 186.464 412.644 198.968 433.642C183.397 433.642 167.904 433.799 152.333 433.564C156.108 423.261 154.928 412.173 153.748 401.477C152.018 388.029 149.344 374.738 147.221 361.447C146.513 357.908 146.434 354.055 144.232 351.066C138.098 373.48 131.807 396.129 130.784 419.486C130.47 424.284 131.413 429.002 132.436 433.721C119.617 433.721 106.798 433.721 93.9791 433.721C97.0462 422.868 95.3947 411.622 93.7432 400.691C91.5412 386.456 87.4517 372.615 84.2273 358.616C83.6768 355.864 82.6545 353.268 81.003 350.909C77.6213 369.469 74.3969 388.029 72.2735 406.746C71.4084 415.711 71.0939 424.991 74.0037 433.642C67.8695 433.642 61.7353 433.8 55.6011 433.328C64.0159 421.217 66.7685 406.353 69.7569 392.197C72.5881 376.547 75.1833 360.897 77.464 345.168C78.3291 334.63 79.9806 323.384 76.0484 313.082Z" fill="#D42C3D"/>
<path d="M240.177 338.483C256.85 334.079 275.96 337.146 289.487 348.157C311.429 366.245 312.058 403.679 291.296 422.868C273.05 439.147 243.48 440.17 223.505 426.564C200.226 410.521 197.238 373.716 215.798 352.954C222.168 345.719 230.897 340.764 240.177 338.483ZM249.064 341.865C239.706 345.561 235.537 355.864 233.414 364.986C230.426 380.007 230.426 395.815 234.201 410.757C236.638 419.644 241.908 429.631 251.738 431.597C259.838 433.485 267.781 428.216 271.635 421.295C278.555 408.791 279.185 394.084 278.713 380.164C278.005 368.761 276.196 356.493 268.725 347.37C264.085 341.629 255.906 339.113 249.064 341.865Z" fill="#D42C3D"/>
<path d="M440.797 344.223C450.234 336.673 463.289 335.572 474.928 337.303C486.017 338.875 496.555 345.246 501.982 355.155C508.981 367.816 509.138 382.758 512.127 396.6C514.014 404.149 513.306 413.823 520.148 418.934C525.496 421.766 528.406 415.553 530.765 412.014C530.372 419.092 528.563 426.799 523.137 431.753C515.902 438.438 503.476 436.787 497.106 429.63C493.016 425.541 491.679 419.878 489.792 414.609C487.354 414.609 487.433 418.384 486.017 419.878C477.13 437.573 451.65 440.561 436.393 429.63C421.058 418.541 421.372 392.117 437.101 381.5C451.335 371.748 472.176 374.501 483.579 387.477C481.77 375.523 480.748 363.176 476.659 351.773C472.726 341.235 458.335 336.909 449.448 343.673C443.314 348.313 445.516 359.795 453.537 360.738C458.964 361.997 463.682 358.064 464.076 352.717C468.794 357.514 466.12 366.007 460.93 369.389C452.594 375.916 438.595 371.67 435.135 361.682C432.697 355.391 435.607 348.234 440.797 344.223ZM461.166 385.983C450.549 391.724 449.291 407.059 454.874 416.811C459.75 425.305 472.412 427.192 479.804 420.901C488.612 413.272 489.163 398.33 481.692 389.679C476.737 383.859 467.772 382.523 461.166 385.983Z" fill="#D42C3D"/>
<path d="M532.889 344.38C544.449 343.751 556.089 341.392 566.312 335.651C566.863 344.774 565.29 354.053 567.335 363.098C571.66 354.919 576.3 346.268 584.715 341.628C596.747 334.471 613.105 335.022 624.587 343.043C639.136 353.11 641.023 376.781 628.441 389.129C617.43 399.352 597.219 399.981 587.31 387.792C581.49 380.871 580.625 368.367 589.04 363.176C585.737 368.838 587.782 376.624 594.388 378.512C604.769 382.365 614.049 370.333 611.139 360.738C609.173 348.47 593.287 343.358 583.456 349.807C571.109 357.75 566.076 373.321 566.312 387.398C566.627 402.97 566.391 419.17 572.289 433.877C559.313 433.877 546.337 433.877 533.361 433.877C539.731 417.44 538.866 399.509 539.18 382.208C539.102 369.389 540.281 355.469 532.889 344.38Z" fill="#D42C3D"/>
<path d="M651.483 356.962C651.562 346.975 661.157 340.605 669.807 338.324C685.929 334.234 705.826 337.144 716.443 351.143C726.116 364.04 725.88 380.949 729.183 396.127C731.149 403.834 730.284 414.215 737.677 419.17C743.025 421.607 745.463 415.237 748.136 412.013C747.429 419.091 745.856 426.719 740.429 431.752C733.273 438.437 720.926 436.943 714.556 429.944C710.152 425.618 708.579 419.405 706.77 413.743C703.31 420.035 700.007 426.955 693.558 430.73C679.087 440.01 656.517 437.336 646.843 422.394C639.215 409.811 641.26 391.172 653.528 382.207C667.763 371.747 689.311 374.343 700.872 387.633C699.063 375.68 698.041 363.411 693.951 352.008C690.019 341.155 674.526 336.594 665.954 344.615C660.37 349.649 663.516 360.58 671.302 360.973C676.649 361.996 680.896 357.828 681.289 352.716C686.873 358.85 682.154 368.759 675.155 371.354C665.167 375.916 651.248 368.366 651.483 356.962ZM680.975 384.881C668.628 388.813 666.268 405.25 671.538 415.552C675.784 424.517 688.446 427.348 696.232 421.372C705.118 414.687 706.377 400.924 700.636 391.802C696.704 385.353 688.131 382.443 680.975 384.881Z" fill="#D42C3D"/>
<path d="M281.783 124.104C291.85 121.194 298.85 109.868 295.782 99.5649C292.794 87.5313 278.322 81.0819 266.996 85.4077C256.929 88.6324 250.322 100.273 253.783 110.497C257.086 121.902 270.771 127.958 281.783 124.104Z" fill="#D42C3D"/>
<path d="M568.043 148.01C555.696 136.056 536.585 133.697 520.621 138.416C507.959 142.033 497.342 151.864 492.859 164.289C492.152 164.289 490.815 164.368 490.107 164.447C490.107 140.067 490.343 115.766 489.949 91.3868C475.715 99.0153 459.75 102.633 443.707 103.419C452.83 116.553 452.201 133.147 452.515 148.325C452.436 171.761 452.672 195.118 452.358 218.553C451.729 236.248 451.178 254.415 444.415 271.087C462.346 271.166 480.276 271.166 498.207 271.087C488.455 245.607 490.657 217.767 490.107 191.028C489.478 179.31 493.882 166.806 504.027 160.121C514.565 152.886 530.766 153.673 539.338 163.66C545.315 170.738 546.73 180.333 546.73 189.377C546.652 211.082 547.123 232.945 543.506 254.415C542.641 260.156 540.36 265.582 538.63 271.087C556.639 271.166 574.649 271.166 592.658 271.087C582.277 244.584 585.108 215.486 584.086 187.725C583.693 173.176 578.895 158.077 568.043 148.01Z" fill="#D42C3D"/>
<path d="M675.549 219.34C662.651 222.879 657.382 241.124 665.325 251.269C666.033 246.629 666.269 240.967 670.437 237.9C675.313 234.282 682.627 236.484 685.615 241.518C689.547 248.124 688.918 257.246 684.357 263.381C678.852 270.616 667.055 271.324 660.606 265.111C653.371 258.347 651.405 247.888 651.326 238.372C651.326 207.072 651.326 175.772 651.326 144.471C666.19 144.471 681.054 144.471 695.917 144.471C695.917 143.213 695.917 140.697 695.917 139.438C680.896 139.438 665.875 139.438 650.854 139.438C650.854 128.192 650.855 116.946 650.933 105.779C650.933 103.419 650.619 101.217 649.832 99.0154C647.316 102.633 646.529 107.116 644.799 111.127C640.945 120.564 634.182 129.057 625.138 134.012C615.386 139.674 603.747 139.831 592.815 139.517C592.815 141.168 592.815 142.899 592.815 144.55C599.657 144.55 606.578 144.55 613.499 144.55C613.499 171.446 613.499 198.421 613.499 225.317C613.577 236.484 615.779 248.124 622.543 257.168C629.778 266.762 641.496 271.953 653.214 273.526C667.134 275.413 682.705 274.233 693.873 264.796C703.153 257.246 706.062 243.484 701.422 232.552C697.333 222.643 685.851 216.509 675.549 219.34Z" fill="#D42C3D"/>
<path d="M295.15 134.955C280.915 142.426 265.108 146.358 249.064 146.909C259.288 164.132 257.086 184.815 257.401 204.083C256.929 226.575 257.637 249.853 249.379 271.087C267.388 271.166 285.398 271.166 303.407 271.087C296.722 255.044 296.172 237.427 295.543 220.362C294.992 191.893 295.621 163.424 295.15 134.955Z" fill="#D42C3D"/>
<path d="M421.215 204.633C405.015 191.5 384.253 186.545 366.479 176.164C360.188 172.39 353.503 166.255 354.604 158.155C355.076 150.841 361.289 145.336 367.973 143.449C378.354 140.382 390.308 140.382 399.745 146.28C409.104 151.785 415.317 161.222 418.699 171.289C419.328 171.996 420.507 173.333 421.137 173.962C422.788 164.447 423.968 154.931 425.462 145.415C401.318 136.764 374.501 133.068 349.256 139.123C336.595 142.348 323.225 150.684 320.787 164.525C318.113 175.142 322.989 186.545 331.876 192.68C348.155 204.476 368.996 207.779 385.511 219.34C393.69 224.923 399.51 234.675 398.094 244.82C397.229 255.594 388.421 264.088 378.512 267.391C367.344 271.009 354.368 269.908 344.302 263.616C335.494 258.347 332.112 245.214 338.718 237.035C345.717 227.991 364.041 231.215 364.277 243.877C370.254 241.36 368.839 232.552 366.872 227.755C357.907 208.959 328.259 208.33 316.619 224.688C309.305 234.911 310.406 250.325 319.686 258.976C330.775 269.514 346.661 272.503 361.367 273.84C380.242 275.177 400.217 273.918 416.968 264.481C427.113 258.976 434.821 248.438 435.528 236.72C436.944 224.294 430.731 212.105 421.215 204.633Z" fill="#D42C3D"/>
<path d="M847.542 251.269C840.15 252.134 836.453 244.112 835.116 238.135C831.184 219.261 828.746 200.072 824.814 181.119C821.668 166.098 813.332 151.549 799.727 143.842C784.234 135.27 765.202 134.09 748.294 138.73C737.363 141.876 726.038 149.268 723.757 161.222C721.477 174.198 733.43 185.916 746.092 186.073C756.709 187.174 767.876 179.074 768.27 167.985C768.191 164.761 768.191 159.649 764.023 159.177C765.517 169.244 751.597 173.019 744.912 167.671C737.205 162.402 738.228 149.583 746.092 144.864C756.237 138.809 770.943 141.247 778.257 150.684C783.448 157.054 785.414 165.311 786.751 173.254C788.56 184.265 790.683 195.196 792.334 206.285C788.245 205.026 786.043 201.016 782.661 198.735C766.775 187.41 743.89 187.882 727.768 198.42C705.197 213.363 705.276 251.583 728.004 266.368C743.811 276.356 765.596 277.064 781.56 267.076C789.818 262.122 795.323 253.864 798.783 245.056C801.614 243.169 801.614 247.494 802.322 249.067C804.524 258.111 809.872 266.762 818.287 271.087C827.173 275.648 839.206 275.491 846.834 268.492C854.069 261.65 857.215 251.348 857.294 241.674C853.283 244.27 853.126 251.033 847.542 251.269ZM786.043 253.707C775.347 262.2 757.495 258.661 751.44 246.236C743.575 231.372 747.665 207.15 766.146 202.824C775.19 200.544 785.492 204.004 790.84 211.711C799.727 224.137 798.311 243.955 786.043 253.707Z" fill="#D42C3D"/>
<path d="M197.946 180.097C197.631 180.176 197.317 180.333 197.002 180.411H196.924C192.441 182.456 188.587 185.759 185.835 190.399C178.757 202.038 181.981 216.745 194.014 223.901C196.452 225.396 199.047 226.261 201.721 226.575C205.024 226.811 208.327 226.025 211.237 223.823C211.315 223.823 211.315 223.744 211.394 223.744C211.315 223.744 211.315 223.744 211.237 223.744C205.496 223.587 199.676 220.048 199.362 213.835C197.238 203.454 208.012 194.331 218 196.848C218.315 196.927 218.629 197.005 218.944 197.163C234.279 200.859 237.425 222.171 228.302 233.339C225.157 237.428 221.067 240.259 216.427 241.989C216.427 241.989 216.349 241.989 216.27 241.989C204.788 246.236 190.475 243.405 181.745 234.676C167.826 220.598 162.242 201.095 153.984 183.636C152.254 181.67 152.49 177.03 156.186 179.153C156.265 179.232 156.344 179.232 156.422 179.31C159.253 180.176 162.163 180.726 165.073 180.962C182.768 182.456 201.485 173.098 209.507 156.976C216.113 143.37 212.416 125.44 200.541 115.924C190.318 107.43 177.105 104.52 164.051 103.577C160.512 103.341 156.973 103.262 153.512 103.183C144.783 103.183 136.053 103.183 127.324 103.183C125.122 102.79 121.19 98.8581 120.875 98.5435C112.932 90.6005 104.203 83.6799 94.8443 77.467C89.8897 74.164 89.9684 74.164 84.7779 76.9165C79.6661 79.5904 74.8688 82.7362 70.2288 86.1965C63.3082 91.387 57.0167 97.3639 51.3544 103.97C51.0398 104.363 50.8039 104.756 50.4106 105.386C51.433 103.891 55.1293 106.251 55.1293 106.251C55.1293 106.251 56.5448 107.194 57.174 107.745C58.3536 108.767 59.376 110.025 60.1624 111.441C61.4207 113.722 61.9713 116.396 62.6004 118.912C63.7801 123.867 64.1733 128.979 64.6451 134.09C65.3529 142.427 66.1394 150.763 66.2967 159.178C66.6112 175.221 66.4539 191.343 66.4539 207.386C66.4539 222.171 65.8248 236.799 63.1509 251.348C62.2072 256.696 61.0275 262.044 58.1177 266.762C57.3313 268.099 57.3313 269.279 57.6459 270.694H121.347C109.865 247.573 111.045 220.913 110.573 195.826V108.531C124.257 109.16 138.57 106.88 151.782 110.891C151.861 110.891 151.861 110.891 151.94 110.969C162.556 113.879 170.028 120.485 173.724 131.338C176.083 138.259 176.87 145.494 174.825 152.572C171.915 162.638 163.107 169.716 152.569 170.896H152.49C151.31 171.053 150.131 171.21 148.951 171.21C147.221 165.391 141.716 161.144 135.896 161.065C135.66 161.065 135.424 161.065 135.188 161.144C130.47 161.537 127.009 164.604 126.302 169.008C125.594 173.176 128.111 177.738 132.121 179.546C132.829 179.861 133.537 180.097 134.323 180.333C137.39 181.119 140.379 180.726 143.21 178.917C143.682 178.603 144.075 178.445 144.468 178.524C144.783 178.524 145.098 178.681 145.333 178.996C145.727 179.468 145.884 180.254 145.805 180.883C145.412 182.928 144.862 184.973 144.311 187.018C141.873 196.14 139.121 205.263 138.334 214.779C137.548 225.002 138.57 234.833 142.581 244.349C146.749 254.179 153.355 261.965 162.714 267.155C173.645 273.29 185.52 275.02 197.867 273.683C198.339 273.604 198.732 273.604 199.204 273.526C205.417 272.424 211.394 270.301 216.742 266.998C240.256 251.977 246.941 217.531 233.021 193.86C226.022 182.063 211.001 175.3 197.946 180.097Z" fill="#D42C3D"/>
<path d="M58.5898 39.6392C58.5898 39.7965 58.6685 39.9538 58.6685 40.1111C88.6317 52.8513 113.562 71.4112 128.268 102.082C129.762 99.3297 131.099 97.049 132.2 94.6111C135.739 86.7467 137.548 78.4892 138.492 69.917C138.964 65.6703 138.806 61.5808 136.604 57.7272C133.773 52.8513 129.998 48.7619 125.673 45.2229C115.921 37.3586 104.439 33.8196 92.0134 32.8759C82.4975 32.1681 73.2175 33.505 64.2522 37.044C62.3647 37.8304 60.5559 38.7741 58.5898 39.6392Z" fill="#D42C3D"/>
<path d="M73.9288 65.9828C73.2996 65.5896 72.985 65.3536 72.5918 65.1963C67.1649 62.9941 61.8166 60.7132 56.3897 58.747C51.828 57.0953 47.1876 55.9155 42.5472 54.5785C41.9966 54.4212 40.9741 54.4212 40.7382 54.7358C37.9854 58.1178 35.6259 61.893 35.7045 66.4548C35.7832 69.6008 36.0978 72.8255 36.6484 75.8928C38.0641 83.6006 40.2663 90.9938 43.9629 97.9151C44.9853 99.8027 46.2437 101.612 47.6595 103.814C53.5583 88.9489 62.6818 76.8367 73.9288 65.9828Z" fill="#D42C3D"/>
<path d="M121.74 94.611C114.82 82.7358 105.854 72.7481 95.1588 64.0973C83.5196 54.66 70.622 47.5035 56.7807 41.9198C55.7584 41.5266 54.8933 41.5266 54.0282 42.2344C52.2194 43.5713 50.2533 44.8296 48.5232 46.3238C46.5571 48.054 44.7483 49.9414 42.8608 51.7502C42.9395 51.9075 43.0181 52.0648 43.0968 52.2221C73.3745 60.1651 99.9561 74.7928 122.527 96.5771C122.369 95.7906 122.055 95.2401 121.74 94.611Z" fill="#D42C3D"/>
<path d="M60.4782 20.4495C57.7255 25.5618 54.7367 30.5955 51.9053 35.6291C50.8828 37.5168 49.8604 39.4044 48.7593 41.292C48.8379 41.3706 48.9952 41.5279 49.0739 41.6066C50.6469 40.8201 52.2199 39.9549 53.7929 39.1684C63.3883 34.0561 73.0624 29.0225 82.6578 23.9888C84.9386 22.8091 85.2532 21.3933 83.287 19.7417C81.6353 18.326 79.905 16.8316 77.9387 15.7305C70.9388 11.6406 64.1748 13.5283 60.4782 20.4495Z" fill="#D42C3D"/>
<path d="M41.5276 48.2895C41.449 48.2109 41.3703 48.0536 41.2917 47.9749C40.8198 48.1322 40.4265 48.2109 39.9546 48.3682C28.5502 53.0872 17.1459 57.8063 5.82017 62.5253C4.0112 63.3118 3.53929 64.8062 4.95501 66.1433C7.07858 68.2668 9.2808 70.3904 11.7976 71.9634C17.3818 75.424 23.6739 74.0083 27.4491 68.6601C30.6738 64.0197 33.8985 59.3793 37.1232 54.6602C38.6962 52.5367 40.1119 50.4131 41.5276 48.2895Z" fill="#D42C3D"/>
<path d="M17.5388 36.4944C23.595 37.9888 29.5724 39.6404 35.6285 41.2135C37.3588 41.6854 39.1678 42.0786 40.8981 42.5505C40.9768 42.3932 41.0554 42.3146 41.1341 42.1573C40.5835 41.5281 40.1116 40.8988 39.5611 40.2696C34.4488 34.6854 29.3365 29.1012 24.2242 23.5957C21.2354 20.371 18.2467 17.1463 15.258 13.9216C13.8423 12.4273 12.2692 12.5846 11.4827 14.3935C10.3816 16.989 9.20186 19.6631 8.57266 22.4159C6.99964 29.1799 10.7749 34.8427 17.5388 36.4944Z" fill="#D42C3D"/>
<path d="M33.8967 29.7316C36.8854 33.2709 39.9528 36.8102 43.2561 40.664C43.3348 39.8775 43.4134 39.4843 43.4134 39.1697C42.7842 34.2147 42.0764 29.3383 41.3685 24.3833C40.346 16.9902 39.3236 9.59699 38.3798 2.20382C38.1438 0.23755 36.8854 -0.548958 35.1551 0.23755C32.0877 1.65326 29.3349 3.46223 27.1327 6.05771C22.9642 10.9341 22.9642 16.8329 27.1327 21.7092C29.4136 24.462 31.6158 27.1361 33.8967 29.7316Z" fill="#D42C3D"/>
<path d="M45.7708 36.8088C45.8494 37.8312 45.9281 38.8537 46.0067 39.8762C46.164 39.8762 46.3213 39.9548 46.4 39.9548C46.7146 39.4043 47.1078 38.8537 47.3438 38.2245C49.3887 34.2133 51.4336 30.2021 53.4786 26.1909C57.0178 19.3483 60.4785 12.5057 64.0178 5.66307C64.8829 4.01141 64.2537 2.67434 62.3661 2.43839C59.9279 2.20244 57.4897 1.88784 55.1302 2.12379C47.6584 2.9103 43.018 7.8653 43.6472 15.4944C44.3551 22.6516 45.0629 29.7302 45.7708 36.8088Z" fill="#D42C3D"/>
<path d="M17.4607 54.0322C23.3595 51.9086 29.1797 49.7064 34.9998 47.5042C36.7301 46.875 38.5391 46.1671 40.2694 45.4593C40.2694 45.302 40.1908 45.2233 40.1908 45.066C39.7975 44.9087 39.4043 44.7514 39.011 44.6728C26.9775 41.9986 14.9439 39.4032 2.83166 36.729C0.944046 36.3358 -0.314366 37.3582 0.078888 39.2459C0.550793 41.92 1.0227 44.5941 2.04516 47.0323C4.71928 53.8749 10.6967 56.4704 17.4607 54.0322Z" fill="#D42C3D"/>
<path d="M74.7923 68.343C66.6913 76.2867 59.6914 85.0956 54.2645 95.0843C53.6353 96.1854 53.1633 97.2865 52.6128 98.4662C52.6914 98.5449 52.8487 98.6235 52.9274 98.7808C62.8374 88.3203 74.0845 79.5114 87.4551 73.1407C86.8259 72.6688 86.4326 72.4328 86.0394 72.1969C83.3653 70.7812 80.6911 69.4441 78.0957 67.8711C76.7586 67.0846 75.8934 67.2419 74.7923 68.343Z" fill="#D42C3D"/>
</g>
<defs>
<clipPath id="clip0_1680_2625">
<rect width="857.215" height="436" fill="white"/>
</clipPath>
</defs>
</svg>
